# xmcd CD database file
#
# Track frame offsets:
#	150
#	36472
#	70750
#	101477
#	137040
#	162950
#	201447
#	237192
#	269450
#
# Disc length: 3773 seconds
#
# Revision: 0
# Processed by: cddbd v1.5.2PL0 Copyright (c) Steve Scherf et al.
# Submitted via: CDex 1.70beta2
#
DISCID=820ebb09
DTITLE=本田竹広 - EASE
DYEAR=1995
DGENRE=Jazz
TTITLE0=EASE
TTITLE1=CHA-CHA-CHA
TTITLE2=SOQUE HEILIAN
TTITLE3=BIRD IN THE YARD
TTITLE4=IS IT TRUE
TTITLE5=MR.MONSTER
TTITLE6=MAJOR TO MINOR
TTITLE7=SAVANI
TTITLE8=SEA DREAM
EXTD=YEAR: 1995
EXTT0=
EXTT1=
EXTT2=
EXTT3=
EXTT4=
EXTT5=
EXTT6=
EXTT7=
EXTT8=
PLAYORDER=
